<svg id="Layer_1" data-name="Layer 1" xmlns="http://www.w3.org/2000/svg" viewBox="0 0 1045 965"><path d="M810,482.5,1039.19,79a40.69,40.69,0,0,0-32.42-60.68L766.11.83c-1-.07-2-.1-3-.1a40.66,40.66,0,0,0-29.26,12.42L522.5,232,311.11,13.15A40.66,40.66,0,0,0,281.85.73c-1,0-2,0-3,.1L38.23,18.36A40.69,40.69,0,0,0,5.81,79L235.05,482.5,5.81,886a40.69,40.69,0,0,0,32.42,60.68l240.66,17.53c1,.07,2,.1,3,.1a40.66,40.66,0,0,0,29.26-12.42L522.5,733,733.89,951.85a40.66,40.66,0,0,0,29.26,12.42c1,0,2,0,3-.1l240.66-17.53A40.69,40.69,0,0,0,1039.19,886ZM773.16,921.76,723.85,650.68,990.17,907.05l-216.92,15.8A10.22,10.22,0,0,0,773.16,921.76ZM535.31,660.19l33.43-191a33,33,0,0,0,6.55-1.62L680.89,603a32.87,32.87,0,0,0-5.55,17.27Zm-228.59,74a33,33,0,0,0-16.35-12l1.5-218.73L501.41,670.6Zm-35-691.6,27.71,233.83c-.86.4-1.66.88-2.48,1.35L55.18,57.92,271.73,42.15C271.74,42.31,271.72,42.45,271.74,42.61Zm414,242.93a32.1,32.1,0,0,0,1.73,3.22L577.93,406.84a32.63,32.63,0,0,0-37,6.37L349.18,313.53Zm87.34-242.1a9.4,9.4,0,0,0,.13-1.29l215,15.66L735.25,246a30.92,30.92,0,0,0-2.88-1.73ZM708.2,588.52A32.79,32.79,0,0,0,697,590.6L591.41,455.17a32.43,32.43,0,0,0,1.38-34.44L702.37,302.65a32.59,32.59,0,0,0,10.72,2.82l39.46,176.2L710.22,588.72C709.54,588.68,708.89,588.52,708.2,588.52ZM515.44,655.77l-209.3-166.9,228.77-37.14a32.91,32.91,0,0,0,13.79,13.95ZM317.77,338.84a32.8,32.8,0,0,0,18.58-9L531.67,431.3c0,.11,0,.24,0,.35L294.37,470.16ZM259.32,778.9a32.66,32.66,0,0,0,10.83,5.81l1.51,138.13L58.16,907.3Zm726.79,96L737.77,635.84a32.34,32.34,0,0,0-8.63-39.63l40.47-102.36ZM770.63,469.34,733,301.07a32.17,32.17,0,0,0,14.37-38.73l244-181.45ZM750,55,712.44,240.2a32.85,32.85,0,0,0-28.27,25.06L535,277.67ZM511.87,279.59l-168.22,14a33,33,0,0,0-24-19.6L293.52,53.5ZM57.35,87.39,283.22,292.78a32.6,32.6,0,0,0,14.52,42.48L274,468.66Zm214.2,413.24L270,722.11a32.25,32.25,0,0,0-21.79,39.73L52,887.12ZM291.9,913.17,290.49,784.5a32.88,32.88,0,0,0,22.45-30.92L507.41,690ZM530.51,682.7l150.31-42.83a32.86,32.86,0,0,0,23,14.16L750.42,910.4Z"/></svg>